# Blender v2.77 (sub 0) OBJ File: ''
# www.blender.org
mtllib SharpClaw Bomb.mtl
o MODELS_bin_065:poly000
v 0.000000 0.000000 -1.175781
v 0.000000 0.648438 -1.125000
v -0.917969 0.000000 -0.917969
v -0.796875 0.648438 -0.796875
v -1.125000 0.648438 0.000000
v -0.648438 1.125000 0.000000
v -0.457031 1.125000 0.457031
v 0.000000 1.300781 0.000000
v 0.000000 1.125000 0.648438
v 0.457031 1.125000 0.457031
v 0.000000 0.648438 1.125000
v 0.796875 0.648438 0.796875
v 0.917969 -0.000000 0.917969
v 1.125000 0.648438 0.000000
v 1.175781 0.000000 0.000000
v 0.917969 0.000000 -0.917969
v 1.125000 -0.648438 -0.000000
v 0.796875 -0.648438 -0.796875
v 0.648438 -1.125000 -0.000000
v 0.457031 -1.125000 -0.457031
v 0.000000 -1.300781 -0.000000
v 0.000000 -1.125000 -0.648438
v -0.457031 -1.125000 -0.457031
v -0.796875 -0.648438 -0.796875
v -1.125000 -0.648438 -0.000000
v -1.175781 0.000000 0.000000
v -0.917969 -0.000000 0.917969
v -0.796875 0.648438 0.796875
v 0.000000 -0.648438 1.125000
v -0.796875 -0.648438 0.796875
v -0.457031 -1.125000 0.457031
v -0.648438 -1.125000 -0.000000
v 0.000000 -1.125000 0.648438
v 0.000000 -0.000000 1.175781
v 0.648438 1.125000 0.000000
v 0.457031 1.125000 -0.457031
v 0.796875 0.648438 -0.796875
v 0.000000 1.125000 -0.648438
v -0.457031 1.125000 -0.457031
v 0.796875 -0.648438 0.796875
v 0.457031 -1.125000 0.457031
v 0.000000 -0.648438 -1.125000
vt 0.2275 0.9854
vt 0.7510 0.9854
vt 0.2178 0.6191
vt 0.7568 0.6191
vt 0.2178 0.6191
vt 0.3398 0.4121
vt 0.6377 0.4121
vt 0.4951 0.1094
vt 0.3398 0.4121
vt 0.6377 0.4121
vt 0.2178 0.6191
vt 0.7568 0.6191
vt 0.7510 0.9854
vt 0.2178 0.6191
vt 0.2275 0.9854
vt 0.7510 0.9854
vt 0.2178 0.6191
vt 0.7568 0.6191
vt 0.3398 0.4121
vt 0.6377 0.4121
vt 0.4951 0.1094
vt 0.3398 0.4121
vt 0.6377 0.4121
vt 0.7568 0.6191
vt 0.2178 0.6191
vt 0.2275 0.9854
vt 0.7510 0.9854
vt 0.7568 0.6191
vt 0.7568 0.6191
vt 0.2178 0.6191
vt 0.6377 0.4121
vt 0.3398 0.4121
vt 0.3398 0.4121
vt 0.2275 0.9854
vt 0.3398 0.4121
vt 0.6377 0.4121
vt 0.7568 0.6191
vt 0.3398 0.4121
vt 0.6377 0.4121
vt 0.7568 0.6191
vt 0.6377 0.4121
vt 0.2178 0.6191
vn 0.0000 0.0000 -1.0000
vn -0.7071 0.0000 -0.7071
vn 0.0885 0.4610 -0.8830
vn -0.5849 0.4812 -0.6530
vn -0.9430 0.3310 0.0334
vn -0.5753 0.8140 -0.0802
vn -0.3428 0.8814 0.3251
vn 0.0000 1.0000 0.0000
vn 0.0850 0.8174 0.5697
vn 0.4553 0.8216 0.3430
vn 0.0544 0.4948 0.8673
vn 0.6586 0.4654 0.5913
vn 0.7071 -0.0000 0.7071
vn 0.9430 0.3310 -0.0334
vn 1.0000 0.0000 0.0000
vn 0.7071 0.0000 -0.7071
vn 0.8825 -0.4619 0.0886
vn 0.6522 -0.4820 -0.5851
vn 0.5753 -0.8140 -0.0802
vn 0.4221 -0.8515 -0.3111
vn 0.0000 -1.0000 -0.0000
vn -0.0839 -0.8191 -0.5675
vn -0.4576 -0.8200 -0.3438
vn -0.6540 -0.4366 -0.6177
vn -0.9193 -0.3823 -0.0935
vn -1.0000 0.0000 0.0000
vn -0.7071 -0.0000 0.7071
vn -0.6530 0.4812 0.5849
vn -0.5848 -0.4812 0.6531
vn 0.0318 -0.3307 0.9432
vn -0.3521 -0.8150 0.4603
vn -0.4692 -0.8831 0.0076
vn -0.0859 -0.8498 0.5200
vn 0.0000 -0.0000 1.0000
vn 0.5753 0.8140 0.0802
vn 0.3428 0.8814 -0.3251
vn 0.5913 0.4654 -0.6586
vn 0.0076 0.8831 -0.4692
vn -0.3251 0.8814 -0.3428
vn 0.6530 -0.4812 0.5849
vn 0.4603 -0.8150 0.3521
vn -0.0885 -0.4610 -0.8830
usemtl None
s 1
f 1/1/1 3/2/2 2/3/3
f 2/3/3 3/2/2 4/4/4
f 3/2/2 5/5/5 4/4/4
f 4/4/4 5/5/5 6/6/6
f 5/5/5 7/7/7 6/6/6
f 6/6/6 7/7/7 8/8/8
f 7/7/7 9/9/9 8/8/8
f 8/8/8 9/9/9 10/10/10
f 9/9/9 11/11/11 10/10/10
f 10/10/10 11/11/11 12/12/12
f 11/11/11 13/13/13 12/12/12
f 12/12/12 13/13/13 14/14/14
f 13/13/13 15/15/15 14/14/14
f 14/14/14 15/15/15 16/16/16
f 15/15/15 17/17/17 16/16/16
f 16/16/16 17/17/17 18/18/18
f 17/17/17 19/19/19 18/18/18
f 18/18/18 19/19/19 20/20/20
f 19/19/19 21/21/21 20/20/20
f 20/20/20 21/21/21 22/22/22
f 21/21/21 23/23/23 22/22/22
f 22/22/22 23/23/23 24/24/24
f 23/23/23 25/25/25 24/24/24
f 24/24/24 25/25/25 3/2/2
f 25/25/25 26/26/26 3/2/2
f 3/2/2 26/26/26 5/5/5
f 26/26/26 27/27/27 5/5/5
f 5/5/5 27/27/27 28/28/28
f 27/27/27 11/11/11 28/28/28
f 28/28/28 11/11/11 9/9/9
f 27/27/27 30/29/29 29/30/30
f 29/30/30 30/29/29 31/31/31
f 30/29/29 32/32/32 31/31/31
f 31/31/31 32/32/32 21/21/21
f 32/32/32 23/23/23 21/21/21
f 26/26/26 25/25/25 27/27/27
f 27/27/27 25/25/25 30/29/29
f 25/25/25 32/32/32 30/29/29
f 29/30/30 31/31/31 33/33/33
f 33/33/33 31/31/31 21/21/21
f 11/11/11 34/34/34 13/13/13
f 13/13/13 34/34/34 29/30/30
f 34/34/34 27/27/27 29/30/30
f 12/12/12 14/14/14 35/35/35
f 35/35/35 14/14/14 36/36/36
f 14/14/14 37/37/37 36/36/36
f 36/36/36 37/37/37 38/38/38
f 37/37/37 2/3/3 38/38/38
f 38/38/38 2/3/3 39/39/39
f 2/3/3 4/4/4 39/39/39
f 39/39/39 4/4/4 6/6/6
f 12/12/12 35/35/35 10/10/10
f 10/10/10 35/35/35 8/8/8
f 35/35/35 36/36/36 8/8/8
f 8/8/8 36/36/36 38/38/38
f 15/15/15 13/13/13 17/17/17
f 17/17/17 13/13/13 40/40/40
f 13/13/13 29/30/30 40/40/40
f 40/40/40 29/30/30 33/33/33
f 17/17/17 40/40/40 41/41/41
f 41/41/41 40/40/40 33/33/33
f 17/17/17 41/41/41 19/19/19
f 19/19/19 41/41/41 21/21/21
f 41/41/41 33/33/33 21/21/21
f 1/1/1 16/16/16 42/42/42
f 42/42/42 16/16/16 18/18/18
f 18/18/18 20/20/20 42/42/42
f 42/42/42 20/20/20 22/22/22
f 38/38/38 39/39/39 8/8/8
f 8/8/8 39/39/39 6/6/6
f 1/1/1 42/42/42 3/2/2
f 3/2/2 42/42/42 24/24/24
f 42/42/42 22/22/22 24/24/24
f 5/5/5 28/28/28 7/7/7
f 7/7/7 28/28/28 9/9/9
f 14/14/14 16/16/16 37/37/37
f 37/37/37 16/16/16 2/3/3
f 16/16/16 1/1/1 2/3/3
f 32/32/32 25/25/25 23/23/23
f 27/27/27 34/34/34 11/11/11
